<?xml version="1.0" standalone="no"?>
<svg viewBox="0 0 200 200" xmlns="http://www.w3.org/2000/svg">
  <path fill="#FF0066" d="M39.7,-73.5C48.7,-63.6,51.3,-47.4,59.1,-34.1C67,-20.7,80.1,-10.4,80.5,0.2C80.9,10.9,68.7,21.7,61.3,35.9C53.9,50,51.5,67.5,42.1,72.7C32.7,77.9,16.3,70.9,-0.1,71C-16.4,71.1,-32.9,78.2,-44.6,74.4C-56.3,70.5,-63.4,55.6,-71.3,41.3C-79.2,27.1,-87.9,13.5,-84.5,2C-81,-9.6,-65.4,-19.1,-55.4,-29.7C-45.4,-40.3,-41,-51.9,-32.7,-62.2C-24.4,-72.4,-12.2,-81.4,1.6,-84.2C15.4,-86.9,30.7,-83.4,39.7,-73.5Z" transform="translate(100 100)" />
</svg>
