<?xml version="1.0" standalone="no"?>
<svg viewBox="0 0 200 200" xmlns="http://www.w3.org/2000/svg">
  <path fill="#FF0066" d="M37.7,-66.2C49.6,-58.3,60.7,-49.9,63.1,-38.8C65.4,-27.6,59.1,-13.8,56.7,-1.4C54.3,11,55.8,22,51.4,29.7C47,37.3,36.7,41.6,27.2,46.1C17.6,50.7,8.8,55.5,-2,58.9C-12.8,62.3,-25.5,64.3,-34.4,59.4C-43.4,54.5,-48.5,42.7,-57.8,31.7C-67,20.7,-80.4,10.3,-85.9,-3.2C-91.3,-16.6,-88.9,-33.3,-81.3,-47.3C-73.8,-61.3,-61.2,-72.7,-46.8,-79.1C-32.4,-85.6,-16.2,-87,-1.7,-84.1C12.9,-81.2,25.7,-74,37.7,-66.2Z" transform="translate(100 100)" />
</svg>
