<?xml version="1.0" encoding="UTF-8" standalone="no"?>
<!-- Generator: Adobe Illustrator 24.1.1, SVG Export Plug-In . SVG Version: 6.00 Build 0)  -->

<svg
   version="1.1"
   x="0px"
   y="0px"
   viewBox="0 0 847000 847000"
   xml:space="preserve"
   id="svg9"
   width="847000"
   height="847000"
   xmlns="http://www.w3.org/2000/svg"
   xmlns:svg="http://www.w3.org/2000/svg"><defs
   id="defs9" />
<style
   type="text/css"
   id="style1">
	.st0{display:none;}
	.st1{fill:#000;}
</style>
<g
   id="Layer_2"
   style="display:inline"
   transform="translate(-76500,-76500)">
	<path
   d="M 499.5,144 C 302.61,144 143,303.61 143,500.5 c 0,112.36 51.98,212.57 133.19,277.91 -0.08,-1.12 -0.15,-2.25 -0.19,-3.41 -0.29,-7.99 -82,-109 48,-103 0,0 95.5,20.5 106.5,108.5 0,0 -3,53 -25,58 0,0 -4.59,1.2 -12.02,2.47 33.49,10.42 69.1,16.03 106.02,16.03 37.03,0 72.75,-5.65 106.33,-16.13 -7.09,-1.23 -11.44,-2.37 -11.44,-2.37 -22,-5 -25,-58 -25,-58 11,-88 106.5,-108.5 106.5,-108.5 130,-6 48.29,95.01 48,103 -0.03,0.9 -0.1,1.77 -0.15,2.66 C 804.42,712.3 856,612.42 856,500.5 856,303.61 696.39,144 499.5,144 Z M 328,644.5 c -83.67,0 -151.5,-67.83 -151.5,-151.5 0,-83.67 67.83,-151.5 151.5,-151.5 83.67,0 151.5,67.83 151.5,151.5 0,83.67 -67.83,151.5 -151.5,151.5 z M 671.5,645 C 587.83,645 520,577.17 520,493.5 520,409.83 587.83,342 671.5,342 755.17,342 823,409.83 823,493.5 823,577.17 755.17,645 671.5,645 Z"
   id="path1" />
	<path
   d="m 500,76.5 c 0,0 -17.5,64 -49.5,82 l 82.5,-8 c 0,0 -30.5,-42.5 -33,-74 z"
   id="path2" />
	<path
   d="m 200.54,200.54 c 0,0 32.88,57.63 22.98,92.98 l 52.68,-63.99 c 0,0 -51.62,-8.48 -75.66,-28.99 z"
   id="path3" />
	<path
   d="m 76.5,500 c 0,0 64,17.5 82,49.5 l -8,-82.5 c 0,0 -42.5,30.5 -74,33 z"
   id="path4" />
	<path
   d="m 200.54,799.46 c 0,0 40.6,-30.86 75.96,-20.96 l -46.97,-54.7 c 0,0 -8.48,51.62 -28.99,75.66 z"
   id="path5" />
	<path
   d="m 500,923.5 c 0,0 17.5,-64 49.5,-82 l -82.5,8 c 0,0 30.5,42.5 33,74 z"
   id="path6" />
	<path
   d="m 799.46,799.46 c 0,0 -32.88,-57.63 -22.98,-92.98 L 723.5,777.5 c 0,0 51.92,1.45 75.96,21.96 z"
   id="path7" />
	<path
   d="m 923.5,500 c 0,0 -64,-17.5 -82,-49.5 l 8,82.5 c 0,0 42.5,-30.5 74,-33 z"
   id="path8" />
	<path
   d="m 799.46,200.54 c 0,0 -57.63,32.88 -92.98,22.98 l 63.99,52.68 c 0,0 8.48,-51.62 28.99,-75.66 z"
   id="path9" />
</g>


</svg>
