<?xml version="1.0" encoding="UTF-8" standalone="no"?>
<!-- Created with Inkscape (http://www.inkscape.org/) -->

<svg
   version="1.1"
   id="svg1"
   width="300"
   height="300"
   viewBox="0 0 300 300"
   sodipodi:docname="mobile-no.svg"
   inkscape:version="1.4 (86a8ad7, 2024-10-11)"
   xmlns:inkscape="http://www.inkscape.org/namespaces/inkscape"
   xmlns:sodipodi="http://sodipodi.sourceforge.net/DTD/sodipodi-0.dtd"
   xmlns="http://www.w3.org/2000/svg"
   xmlns:svg="http://www.w3.org/2000/svg">
  <sodipodi:namedview
     id="namedview1"
     pagecolor="#505050"
     bordercolor="#eeeeee"
     borderopacity="1"
     inkscape:showpageshadow="0"
     inkscape:pageopacity="0"
     inkscape:pagecheckerboard="0"
     inkscape:deskcolor="#505050"
     inkscape:zoom="1.416"
     inkscape:cx="87.570622"
     inkscape:cy="69.20904"
     inkscape:window-width="1600"
     inkscape:window-height="930"
     inkscape:window-x="-6"
     inkscape:window-y="-6"
     inkscape:window-maximized="1"
     inkscape:current-layer="g1"
     showborder="true" />
  <defs
     id="defs1">
    <clipPath
       clipPathUnits="userSpaceOnUse"
       id="clipPath5">
      <path
         style="opacity:0.322;fill:#6723fe;fill-opacity:1;stroke:#5911b4;stroke-width:10;stroke-linecap:round;stroke-linejoin:round;stroke-dasharray:none;stroke-opacity:1;paint-order:fill markers stroke"
         d="M 238.19911,46.940704 V 170.78427 H 341.06916 V 47.440073 Z"
         id="path6" />
    </clipPath>
  </defs>
  <g
     id="g1"
     transform="translate(-137.755,20.55517)">
    <g
       id="g10"
       transform="matrix(0.94774451,0,0,0.94774451,13.043005,12.240063)"
       inkscape:label="phone"
       style="stroke-width:10.5514;stroke-dasharray:none">
      <path
         style="opacity:1;fill:#ffffff;fill-opacity:1;stroke:none;stroke-width:10.5514;stroke-linecap:round;stroke-linejoin:round;stroke-dasharray:none;stroke-opacity:1;paint-order:fill markers stroke"
         d="M 364.03762,227.70983 H 216.22686 V 21.475397 h 147.81076 z"
         id="path2"
         inkscape:label="bg" />
      <path
         style="opacity:1;fill:#6723fe;fill-opacity:1;stroke:none;stroke-width:10.5514;stroke-linecap:round;stroke-linejoin:round;stroke-dasharray:none;stroke-opacity:1;paint-order:fill markers stroke"
         d="M 240.80748,46.940704 V 170.78427 H 339.457 V 47.440073 Z"
         id="path3"
         inkscape:label="screen"
         sodipodi:nodetypes="ccccc" />
      <path
         style="fill:#2161ff;fill-opacity:1;stroke:none;stroke-width:10.5514;stroke-linecap:round;stroke-linejoin:round;stroke-dasharray:none;stroke-opacity:1;paint-order:fill markers stroke"
         d="M 218.72371,170.2849 326.58745,14.981075 350.55718,15.480444 230.70857,181.77039 h 21.97224 l 104.86753,-140.322748 -1.4981,143.818328 -140.32275,0.49937 z"
         id="path4"
         clip-path="url(#clipPath5)"
         inkscape:label="screen highlight" />
      <path
         id="path7"
         style="fill:#6723fe;stroke:none;stroke-width:10.5514;stroke-linecap:round;stroke-linejoin:round;stroke-dasharray:none;paint-order:fill markers stroke"
         d="m 302.61647,198.74895 a 12.48423,12.48423 0 0 1 -12.48423,12.48423 12.48423,12.48423 0 0 1 -12.48423,-12.48423 12.48423,12.48423 0 0 1 12.48423,-12.48423 12.48423,12.48423 0 0 1 12.48423,12.48423 z"
         inkscape:label="button" />
      <path
         id="path7-5"
         style="fill:none;stroke:#5911b4;stroke-width:12.6616;stroke-linecap:round;stroke-linejoin:round;stroke-dasharray:none;paint-order:fill markers stroke"
         d="m 302.34293,197.82338 c 0,6.89485 -5.58938,12.48423 -12.48423,12.48423 -6.89485,0 -12.48423,-5.58938 -12.48423,-12.48423 0,-6.89485 5.58938,-12.48423 12.48423,-12.48423 6.89485,0 12.48423,5.58938 12.48423,12.48423 z M 242.64421,46.015141 V 165.63815 h 94.42898 V 46.51451 Z M 363.76408,226.78426 H 215.95332 V 20.549834 h 147.81076 z"
         inkscape:label="outline"
         sodipodi:nodetypes="ssssscccccccccc" />
    </g>
    <path
       id="path8"
       style="fill:#ff54a0;fill-opacity:1;stroke:#f60055;stroke-width:15;stroke-linecap:round;stroke-linejoin:round;stroke-dasharray:none;stroke-opacity:0.996078;paint-order:fill markers stroke"
       inkscape:label="cross circle"
       d="M 287.75408,-12.124007 A 141.56844,141.56844 0 0 1 429.32291,129.44297 141.56844,141.56844 0 0 1 287.75408,271.01367 141.56844,141.56844 0 0 1 146.1871,129.44297 141.56844,141.56844 0 0 1 287.75408,-12.124007 Z m 0,28.028192 A 113.53948,113.53948 0 0 0 216.87646,41.126948 L 379.82434,195.83191 A 113.53948,113.53948 0 0 0 401.29286,129.44297 113.53948,113.53948 0 0 0 287.75408,15.904185 Z M 195.56266,63.25535 a 113.53948,113.53948 0 0 0 -21.34736,66.18762 113.53948,113.53948 0 0 0 113.53878,113.54065 113.53948,113.53948 0 0 0 71.19638,-25.49306 z" />
  </g>
</svg>
