<?xml version="1.0" encoding="UTF-8" standalone="no"?>
<!-- Created with Inkscape (http://www.inkscape.org/) -->

<svg
   width="105.26127mm"
   height="98.179985mm"
   viewBox="0 0 105.26127 98.179985"
   version="1.1"
   id="svg1"
   xml:space="preserve"
   xmlns="http://www.w3.org/2000/svg"
   xmlns:svg="http://www.w3.org/2000/svg"><defs
     id="defs1" /><g
     id="layer1"
     transform="translate(-48.996253,-49.273271)"><path
       style="fill:#000000"
       d="m 116.09014,147.15759 c -2.53168,-0.41862 -5.06245,-1.55186 -6.26221,-2.80414 -1.65801,-1.73059 -17.101897,-1.59845 -18.761006,0.16052 -4.50143,4.77238 -12.881124,3.20358 -20.483414,-3.8348 -3.377958,-3.1274 -3.811847,-4.39326 -3.532568,-10.30619 0.07712,-1.6329 -0.526518,-2.12457 -2.954332,-2.40635 -1.185696,-0.13762 -2.646939,-0.45491 -3.247206,-0.7051 -1.811922,-0.75519 -7.912753,-1.36129 -8.531721,-0.8476 -1.478408,1.22697 -4.021155,-0.79784 -3.140512,-2.50082 0.289669,-0.56016 0.52667,-1.47379 0.52667,-2.03029 0,-1.56613 0.902906,-4.26242 3.743042,-11.17762 4.271875,-10.40121 6.814906,-15.18534 12.853935,-24.181709 1.107089,-1.649236 3.042482,-4.586111 4.300873,-6.526389 7.096364,-10.94169 22.585044,-27.581517 27.591227,-29.641859 1.783939,-0.734197 5.417872,-1.798247 7.484512,-0.395708 11.63847,7.898542 16.09371,14.769749 21.44424,23.334788 1.52211,2.52236 4.22191,6.808612 5.99956,9.525001 5.32012,8.129582 9.91549,16.587855 12.51421,23.033746 1.30693,3.24172 3.18124,7.64028 4.16515,9.77459 0.9839,2.13431 1.90301,4.27743 2.04247,4.7625 0.13945,0.48507 0.78955,1.37961 1.44467,1.98786 2.4706,2.29386 -0.11488,5.4775 -3.97974,4.90045 -1.23677,-0.18465 -8.00828,0.49195 -10.59243,1.05839 -0.42363,0.0929 -0.87225,0.49023 -0.99693,0.88306 -0.50029,1.57628 -4.16967,5.53735 -6.4589,6.97233 -1.39591,0.87501 -1.50808,1.05263 -1.34141,2.1241 0.98808,6.3522 -5.14939,10.27628 -13.82818,8.84124 z"
       id="path1" /></g></svg>
