<?xml version="1.0" encoding="UTF-8" standalone="no"?>
<!-- Created with Inkscape (http://www.inkscape.org/) -->

<svg
   width="2.2692332mm"
   height="2.2545297mm"
   viewBox="0 0 2.2692332 2.2545297"
   version="1.1"
   id="svg1"
   xml:space="preserve"
   xmlns="http://www.w3.org/2000/svg"
   xmlns:svg="http://www.w3.org/2000/svg"><defs
     id="defs1" /><g
     id="layer1"
     transform="translate(-98.892184,-178.46961)"><path
       id="path9"
       style="fill:#d21414;fill-opacity:1;stroke:none;stroke-width:0.771241;stroke-linecap:round;paint-order:fill markers stroke"
       d="m 100.26468,178.46973 a 0.30371404,0.46807692 48.439154 0 0 -0.357083,0.15709 0.30371404,0.46807692 48.439154 0 0 -0.148312,0.53795 0.30371404,0.46807692 48.439154 0 0 0.551905,-0.0832 0.30371404,0.46807692 48.439154 0 0 0.14883,-0.53796 0.30371404,0.46807692 48.439154 0 0 -0.19534,-0.0739 z m -0.888834,0.4408 a 0.2518469,0.39520593 48.439154 0 0 -0.30024,0.13436 0.2518469,0.39520593 48.439154 0 0 -0.128674,0.45061 0.2518469,0.39520593 48.439154 0 0 0.462504,-0.0734 0.2518469,0.39520593 48.439154 0 0 0.129191,-0.45062 0.2518469,0.39520593 48.439154 0 0 -0.162781,-0.061 z m 1.537374,0.0217 a 0.30254425,0.46598767 48.439154 0 0 -0.35502,0.15606 0.30254425,0.46598767 48.439154 0 0 -0.14831,0.53589 0.30254425,0.46598767 48.439154 0 0 0.54984,-0.0827 0.30254425,0.46598767 48.439154 0 0 0.14779,-0.53589 0.30254425,0.46598767 48.439154 0 0 -0.1943,-0.0734 z m -1.062984,0.50746 a 0.48503706,0.79965568 48.439154 0 0 -0.60048,0.27906 0.48503706,0.79965568 48.439154 0 0 -0.276469,0.89348 0.48503706,0.79965568 48.439154 0 0 0.91984,-0.16795 0.48503706,0.79965568 48.439154 0 0 0.276473,-0.89348 0.48503706,0.79965568 48.439154 0 0 -0.319364,-0.11111 z m 0.891934,0.46044 a 0.29247606,0.46940602 48.439154 0 0 -0.3545,0.16123 0.29247606,0.46940602 48.439154 0 0 -0.15761,0.53072 0.29247606,0.46940602 48.439154 0 0 0.5457,-0.093 0.29247606,0.46940602 48.439154 0 0 0.1571,-0.5302 0.29247606,0.46940602 48.439154 0 0 -0.19069,-0.0687 z" /></g></svg>
