<!-- Created with Inkscape (http://www.inkscape.org/) -->
<svg width="2e3" height="1500" version="1.1" viewBox="0 0 529.17 396.88" xml:space="preserve" preserveAspectRatio="none"  xmlns="http://www.w3.org/2000/svg"><g transform="translate(250.55 35.835)"><rect x="-250.55" y="-35.835" width="529.17" height="396.88" fill="#bfd1e5" style="paint-order:fill markers stroke"/><path d="m-250.55 19.643v341.4h529.17v-333.7c-171.92 3.0463-180.06 46.15-302.47 46.15-125.36 0-136.79-47.007-226.7-53.851z" fill="#99b4d1" style="paint-order:fill markers stroke"/><path d="m278.62 60.381c-166.83 2.287-192.7 72.268-294.24 72.268-114.81 0-129.34-35.175-234.93-38.794v267.19h529.17z" fill="#7499c2" style="paint-order:fill markers stroke"/><path d="m278.62 134.64c-116.56 2.6199-163.59 64.672-278.35 64.672-129.11 0-134.74-44.524-250.81-50.57v212.3h529.17z" fill="#5982b8" style="paint-order:fill markers stroke"/><path d="m253.6 188.61c-141.66-0.46378-177.6 58.292-301.21 58.292-79.733 0-126.29-49.081-202.94-35.383v149.52h529.17v-171.71c-8.6634-0.42107-17.055-0.68862-25.016-0.71469z" fill="#3667a9" style="paint-order:fill markers stroke"/><path d="m278.62 239.99c-133.96-2.0539-152.32 46.346-281.46 46.346-93.11 0-108.67-28.525-177.03-28.525-31.366 0-54.335 4.7615-70.678 10.382v90.771l182.91 2.0784h346.26z" fill="#2b528d" style="paint-order:fill markers stroke"/><path d="m-250.55 309.44v51.603h529.17v-51.603z" fill="#131438" style="paint-order:fill markers stroke"/></g></svg>
