<svg version="1.1" viewBox="0 0 32 32" xmlns="http://www.w3.org/2000/svg" xmlns:xlink="http://www.w3.org/1999/xlink"><defs id="defs1"><linearGradient id="linearGradient3"><stop style="stop-color:#5911b4;stop-opacity:1;" offset="0" id="stop3"/><stop style="stop-color:#3e006f;stop-opacity:1;" offset="1" id="stop4"/></linearGradient><linearGradient id="linearGradient61"><stop style="stop-color:#5911b4;stop-opacity:1;" offset="0" id="stop61"/><stop style="stop-color:#4f3dfc;stop-opacity:1;" offset="1" id="stop62"/></linearGradient><linearGradient id="linearGradient60"><stop style="stop-color:#883bbe;stop-opacity:1;" offset="0.2" id="stop59"/><stop style="stop-color:#5911b4;stop-opacity:1;" offset="1" id="stop60"/></linearGradient><linearGradient xlink:href="#linearGradient60" id="linearGradient58" gradientUnits="userSpaceOnUse" x1="9.17" y1="8.37" x2="9.17" y2="25.03"/><linearGradient xlink:href="#linearGradient61" id="linearGradient62" x1="7.66" y1="15.19" x2="7.66" y2="19.86" gradientUnits="userSpaceOnUse" gradientTransform="matrix(1.07,-0.08,0.08,1.09,-2.63,-0.21)"/><linearGradient xlink:href="#linearGradient3" id="linearGradient4" x1="7.91" y1="9.52" x2="7.91" y2="22.79" gradientUnits="userSpaceOnUse" gradientTransform="matrix(1.07,-0.08,0.08,1.09,-2.63,-0.21)"/></defs><g id="g1" style="display:inline" transform="matrix(0.94,0,0,0.94,0.94,0.94)"><g id="g57" style="display:inline"><g id="g55" style="display:inline" transform="translate(-0.91,-0.71)"><path style="display:inline;opacity:1;fill:#f3bdff;fill-opacity:1;stroke:url(#linearGradient58);stroke-width:2.7;stroke-linecap:round;stroke-linejoin:round;stroke-miterlimit:2;stroke-dasharray:none;paint-order:fill markers stroke" d="m 15.91,8.86 -2.42,-3.99e-4 c 0,0 -3.25,-5.73 -5.72,-5.73 -2.47,0 -5.15,5.28 -5.01,9.40 0,0 -3.08,8.49 1.22,13.79 2.22,2.73 6.17,3.35 11.94,3.35 m 0,-20.81 2.42,-3.99e-4 c 0,0 3.25,-5.73 5.72,-5.73 2.47,0 5.15,5.28 5.01,9.40 0,0 3.08,8.49 -1.22,13.79 -2.22,2.73 -6.17,3.35 -11.94,3.35" id="path54" transform="translate(0.99,0.30)"/><path style="display:inline;fill:#9d55d0;fill-opacity:1;stroke:none;stroke-width:2.7;stroke-linecap:round;stroke-linejoin:round;stroke-miterlimit:2;stroke-dasharray:none;stroke-opacity:1;paint-order:fill markers stroke" d="M 6.61,12.32 C 7.23,12.49 7.90,11.54 10.61,10.81 11.68,10.53 9.37,7.37 7.91,7.37 c -1.29,0 -2.26,4.69 -1.30,4.95 z m 20.77,0 c -0.62,0.16 -1.28,-0.78 -4.00,-1.50 -1.06,-0.28 1.23,-3.44 2.69,-3.44 1.29,0 2.26,4.69 1.30,4.95 z" id="path55" transform="translate(-0.08,-2.40e-5)"/></g><g id="g56" style="display:inline"><path style="display:inline;fill:none;fill-opacity:1;stroke:#5911b4;stroke-width:2.7;stroke-linecap:round;stroke-linejoin:round;stroke-miterlimit:2;stroke-dasharray:none;stroke-opacity:1;paint-order:fill markers stroke" d="m 12.43,24.77 c 0,0 2.35,0.10 3.56,-2.38 m 3.56,2.38 c 0,0 -2.35,0.10 -3.56,-2.38" id="path18-2"/><path style="display:inline;fill:#ffbde2;stroke:#49078b;stroke-width:2.12;stroke-linecap:round;stroke-miterlimit:2;stroke-opacity:1;paint-order:fill markers stroke" d="m 12.99,16.39 c 1.40,-0.98 3.03,-1.03 3.03,-1.03 m 2.97,1.03 c -1.40,-0.98 -3.03,-1.03 -3.03,-1.03" id="path5"/><path style="display:inline;fill:url(#linearGradient62);fill-opacity:1;stroke:url(#linearGradient4);stroke-width:2.38;stroke-linecap:round;stroke-miterlimit:2;stroke-dasharray:none;stroke-opacity:1;paint-order:fill markers stroke" d="m 7.39,12.95 c 2.81,-0.22 4.64,-0.37 5.77,1.19 1.05,1.46 0.89,7.85 -4.96,8.31 -6.51,0.51 -7.09,-5.82 -6.30,-7.43 0.84,-1.71 2.68,-1.85 5.49,-2.07 z m 17.20,0 c -2.81,-0.22 -4.64,-0.37 -5.77,1.19 -1.05,1.46 -0.89,7.85 4.96,8.31 6.51,0.51 7.09,-5.82 6.30,-7.43 -0.84,-1.71 -2.68,-1.85 -5.49,-2.07 z" id="path60"/></g><path id="path10" style="display:inline;fill:#d289f6;fill-opacity:1;stroke:none;stroke-width:2.12;stroke-linecap:round;stroke-miterlimit:2;stroke-opacity:1;paint-order:fill markers stroke" d="m 0.78,16.06 a 2.37,1.89 0 0 0 -0.98,-0.17 2.37,1.89 0 0 0 -2.37,1.89 2.37,1.89 0 0 0 2.37,1.89 2.37,1.89 0 0 0 2.37,-1.89 2.37,1.89 0 0 0 -1.38,-1.72 z m 15.63,4.89 a 2.37,1.89 0 0 0 -0.98,-0.17 2.37,1.89 0 0 0 -2.37,1.89 2.37,1.89 0 0 0 2.37,1.89 2.37,1.89 0 0 0 2.37,-1.89 2.37,1.89 0 0 0 -1.38,-1.72 z" transform="matrix(0.95,-0.29,0.34,0.93,0,0)"/></g></g></svg>