<?xml version="1.0" encoding="UTF-8" standalone="no"?>
<!-- Created with Inkscape (http://www.inkscape.org/) -->

<svg
   version="1.1"
   id="svg1"
   width="32"
   height="32"
   viewBox="0 0 32 32"
   xml:space="preserve"
   xmlns:xlink="http://www.w3.org/1999/xlink"
   xmlns="http://www.w3.org/2000/svg"
   xmlns:svg="http://www.w3.org/2000/svg"><defs
     id="defs1"><linearGradient
       id="linearGradient18"><stop
         style="stop-color:#ffe612;stop-opacity:1;"
         offset="0.18281938"
         id="stop18" /><stop
         style="stop-color:#ff8e00;stop-opacity:1;"
         offset="0.78193831"
         id="stop19" /></linearGradient><linearGradient
       id="linearGradient14"><stop
         style="stop-color:#f95200;stop-opacity:1;"
         offset="0.3017621"
         id="stop14" /><stop
         style="stop-color:#ff8e00;stop-opacity:1;"
         offset="0.65969163"
         id="stop16" /></linearGradient><linearGradient
       id="linearGradient12"><stop
         style="stop-color:#1445ea;stop-opacity:1;"
         offset="0"
         id="stop12" /><stop
         style="stop-color:#233b94;stop-opacity:1;"
         offset="1"
         id="stop13" /></linearGradient><linearGradient
       id="linearGradient10"><stop
         style="stop-color:#0f87ff;stop-opacity:1;"
         offset="0"
         id="stop52" /><stop
         style="stop-color:#5911b4;stop-opacity:1;"
         offset="1"
         id="stop53" /></linearGradient><linearGradient
       id="linearGradient1"><stop
         style="stop-color:#73992a;stop-opacity:1;"
         offset="0.2"
         id="stop42" /><stop
         style="stop-color:#416600;stop-opacity:1;"
         offset="1"
         id="stop43" /></linearGradient><linearGradient
       xlink:href="#linearGradient1"
       id="linearGradient2"
       x1="9.1717186"
       y1="8.3761959"
       x2="9.1717186"
       y2="25.032759"
       gradientUnits="userSpaceOnUse"
       gradientTransform="translate(0.9999998,1.9736959)" /><linearGradient
       xlink:href="#linearGradient10"
       id="linearGradient11"
       x1="26.759468"
       y1="15.292511"
       x2="30.259262"
       y2="22.79784"
       gradientUnits="userSpaceOnUse"
       gradientTransform="matrix(-1,0,0,1,32.193801,0.06791425)" /><linearGradient
       xlink:href="#linearGradient10"
       id="linearGradient17"
       x1="27.371363"
       y1="16.413605"
       x2="30.118483"
       y2="22.304825"
       gradientUnits="userSpaceOnUse" /><linearGradient
       xlink:href="#linearGradient12"
       id="linearGradient13"
       x1="8.427743"
       y1="0.22148278"
       x2="8.427743"
       y2="17.331608"
       gradientUnits="userSpaceOnUse"
       gradientTransform="matrix(1.0418636,0,0,1.0422327,0.24261141,0.49888967)" /><linearGradient
       xlink:href="#linearGradient12"
       id="linearGradient6"
       x1="16"
       y1="-0.054479633"
       x2="16"
       y2="16.287216"
       gradientUnits="userSpaceOnUse"
       gradientTransform="matrix(1.0418636,0,0,1.0422327,0.24261141,0.49888967)" /><linearGradient
       xlink:href="#linearGradient14"
       id="linearGradient15"
       x1="16.91243"
       y1="10.696611"
       x2="16.91243"
       y2="-2.4482813"
       gradientUnits="userSpaceOnUse"
       gradientTransform="translate(0,0.4891285)" /><linearGradient
       xlink:href="#linearGradient18"
       id="linearGradient19"
       x1="16.91243"
       y1="-0.8822304"
       x2="16.91243"
       y2="9.5220737"
       gradientUnits="userSpaceOnUse"
       gradientTransform="translate(0,0.4891285)" /></defs><g
     id="g1"
     style="display:inline"
     transform="matrix(0.94118244,0,0,0.94118244,0.94108106,0.94105832)"><g
       id="g46"
       style="display:inline;stroke-width:1.15633"
       transform="matrix(0.86815598,0,0,0.86145719,2.1097706,3.43609)"><g
         id="g17"
         style="display:inline;stroke-width:1.20497"
         transform="matrix(0.95981854,0,0,0.95947867,-0.23286293,-0.02827227)"><path
           style="display:inline;opacity:1;fill:#ccd2c2;fill-opacity:1;stroke:url(#linearGradient2);stroke-width:3.25314;stroke-linecap:round;stroke-linejoin:round;stroke-miterlimit:2;stroke-dasharray:none;paint-order:fill markers stroke"
           d="m 16.912429,4.5545895 c -5.111965,0 -10.3809975,3.4822925 -13.1165034,8.2588625 -2.615371,4.566798 -3.77864249,9.897196 0.3013145,14.91473 2.2251946,2.736546 7.0411349,3.92778 12.8151889,3.92778 5.774054,0 10.589994,-1.191234 12.815189,-3.92778 4.079957,-5.017534 2.916685,-10.347932 0.301314,-14.91473 C 27.293426,8.036882 22.024394,4.5545895 16.912429,4.5545895 Z"
           id="path1" /></g><g
         id="g5-6"
         style="display:inline;stroke-width:1.15633"
         transform="translate(-1,0.11322277)"><path
           style="display:inline;fill:#a3b67b;fill-opacity:1;stroke:none;stroke-width:3.91903;stroke-linecap:round;stroke-linejoin:round;stroke-miterlimit:2;stroke-dasharray:none;stroke-opacity:1;paint-order:fill markers stroke"
           id="path4-2"
           transform="matrix(0.9579501,0.05983891,-0.07568145,0.95649135,0.76713707,-0.91234968)"
           d="m 12.31871,20.264004 c 0,1.490494 -1.354103,2.698777 -3.0244748,2.698777 -1.6703713,0 -3.0244748,-1.208283 -3.0244748,-2.698777 0,-1.490494 1.3541035,-2.698778 3.0244748,-2.698778 1.6703718,0 3.0244748,1.208284 3.0244748,2.698778 z m 12.212079,-0.763998 c 0.234351,1.475832 1.765113,2.503637 3.419054,2.295665 1.653941,-0.207972 2.804746,-1.572965 2.570396,-3.048798 -0.23435,-1.475832 -1.765113,-2.503637 -3.419053,-2.295665 -1.653941,0.207972 -2.804747,1.572965 -2.570397,3.048798 z" /><path
           style="display:inline;fill:#416600;fill-opacity:1;stroke:none;stroke-width:8.79193;stroke-linecap:round;stroke-linejoin:round;stroke-miterlimit:2;paint-order:fill markers stroke"
           id="path2-2"
           transform="matrix(0.64315132,0.76573911,-0.80129988,0.5982629,1,0.55962)"
           d="m 20.974998,3.1893332 c 0,1.4757764 -1.196354,2.6721296 -2.67213,2.6721296 -1.475777,0 -2.67213,-1.1963532 -2.67213,-2.6721296 0,-1.4757764 1.196353,-2.67212963 2.67213,-2.67212963 1.475776,0 2.67213,1.19635323 2.67213,2.67212963 z m 5.966021,-7.6361343 c 1.417263,-0.3382315 2.291991,-1.7927325 1.953759,-3.2487188 -0.338232,-1.4559863 -1.761341,-2.3621051 -3.178604,-2.023874 -1.417263,0.3382316 -2.291991,1.7927326 -1.953759,3.2487189 0.338231,1.4559863 1.761341,2.3621055 3.178604,2.0238739 z" /><path
           style="display:inline;fill:none;fill-opacity:1;stroke:#8da760;stroke-width:3.19436;stroke-linecap:round;stroke-miterlimit:3;stroke-opacity:1;paint-order:fill markers stroke"
           d="M 11.916042,23.769506 12.281274,25.0362 M 19.908816,23.769506 19.543584,25.0362"
           id="path10"
           transform="translate(1,0.71242695)" /><path
           style="display:inline;fill:none;fill-opacity:1;stroke:#416600;stroke-width:3.1221;stroke-linecap:round;stroke-linejoin:round;stroke-miterlimit:2;stroke-dasharray:none;stroke-opacity:1;paint-order:fill markers stroke"
           d="m 10.805084,22.282486 c 1.613002,3.440647 4.917799,1.127238 6.107345,-0.933118 1.189546,2.060356 4.494343,4.373765 6.107345,0.933118"
           id="path3-3" /></g><g
         id="g16"
         style="display:none;stroke-width:1.15633"
         transform="translate(0,2.1277511)"><g
           id="g5"
           style="display:inline;stroke-width:1.15633"
           transform="translate(-0.91242901,-0.71240289)"><path
             style="display:inline;fill:#a3b67b;fill-opacity:1;stroke:none;stroke-width:3.53221;stroke-linecap:round;stroke-linejoin:round;stroke-miterlimit:2;stroke-dasharray:none;stroke-opacity:1;paint-order:fill markers stroke"
             id="path4"
             transform="matrix(0.99895668,0.04566789,-0.10748834,0.99420635,0,0)"
             d="m 12.507549,16.057495 c 0,1.104653 -1.366834,2.000152 -3.0529096,2.000152 -1.6860754,0 -3.0529096,-0.895499 -3.0529096,-2.000152 0,-1.104653 1.3668342,-2.000152 3.0529096,-2.000152 1.6860756,0 3.0529096,0.895499 3.0529096,2.000152 z m 12.240182,-0.562241 c 0.236553,1.093788 1.781707,1.855527 3.451198,1.701392 1.66949,-0.154134 2.831115,-1.165775 2.594562,-2.259562 -0.236554,-1.093788 -1.781708,-1.855527 -3.451198,-1.701392 -1.669491,0.154134 -2.831116,1.165775 -2.594562,2.259562 z" /><path
             style="display:inline;fill:#6d8142;fill-opacity:1;stroke:none;stroke-width:3.1221;stroke-linecap:round;stroke-linejoin:round;stroke-miterlimit:2;stroke-opacity:1;paint-order:fill markers stroke"
             d="M 16.048257,25.264086 9.8036575,20.617789 16.048257,16.910638 Z m 1e-6,0 6.244599,-4.646297 -6.244599,-3.707151 z"
             id="path7"
             transform="translate(0.86417158,0.23220097)" /><path
             style="display:inline;fill:#8fa957;fill-opacity:1;stroke:none;stroke-width:3.1221;stroke-linecap:round;stroke-linejoin:round;stroke-miterlimit:2;stroke-opacity:1;paint-order:fill markers stroke"
             d="m 12.699957,23.566231 c 0,0 0.956351,-2.648654 3.3483,-2.648654 v 4.278595 z m 6.696601,0 c 0,0 -0.956351,-2.648654 -3.3483,-2.648654 v 4.278595 z"
             id="path8"
             transform="translate(0.86417158,0.23220097)" /><path
             style="display:inline;fill:none;fill-opacity:1;stroke:#416600;stroke-width:3.1221;stroke-linecap:round;stroke-linejoin:round;stroke-miterlimit:2;stroke-opacity:1;paint-order:fill markers stroke"
             d="m 11.343463,20.492441 c 0,0 1.90145,5.127523 5.568966,5.127523 3.667516,0 5.568966,-5.127523 5.568966,-5.127523"
             id="path6" /><path
             style="fill:none;fill-opacity:1;stroke:#416600;stroke-width:3.1221;stroke-linecap:round;stroke-linejoin:round;stroke-miterlimit:2;stroke-dasharray:none;stroke-opacity:1;paint-order:fill markers stroke"
             d="m 8.3941295,18.895015 c 3.0573855,2.802995 6.9552255,0.30041 8.5182995,-2.269303 1.563074,2.569713 5.460914,5.072298 8.518299,2.269303"
             id="path3" /><path
             style="display:inline;fill:#416600;fill-opacity:1;stroke:none;stroke-width:3.1221;stroke-linecap:round;stroke-linejoin:round;stroke-miterlimit:2;stroke-opacity:1;paint-order:fill markers stroke"
             d="m 7.2405748,14.239507 c 0.220142,-1.768477 3.9954642,-2.29329 5.2029692,-1.229989 1.4907,1.312675 0.504759,4.036703 -0.953212,3.441528 C 8.5425233,15.247687 7.043311,15.824195 7.2405748,14.239507 Z m 19.3437082,0 c -0.220142,-1.768477 -3.995464,-2.29329 -5.202969,-1.229989 -1.4907,1.312675 -0.504759,4.036703 0.953212,3.441528 2.947809,-1.203359 4.447021,-0.626851 4.249757,-2.211539 z"
             id="path2" /></g><g
           id="g15"
           transform="translate(0,-0.30561395)"
           style="display:none;stroke-width:1.15633"><path
             style="display:inline;fill:#01bff0;fill-opacity:1;stroke:url(#linearGradient17);stroke-width:2.31267;stroke-linecap:round;stroke-linejoin:miter;stroke-miterlimit:2;stroke-dasharray:none;stroke-opacity:1;paint-order:fill markers stroke"
             d="m 26.224827,15.00904 c -2.579391,7.681045 2.366313,9.368463 4.162173,8.489277 1.79586,-0.879186 3.748483,-5.473835 -4.162173,-8.489277 z"
             id="path16" /><path
             style="display:inline;fill:#01bff0;fill-opacity:1;stroke:url(#linearGradient11);stroke-width:2.31267;stroke-linecap:round;stroke-linejoin:miter;stroke-miterlimit:2;stroke-dasharray:none;stroke-opacity:1;paint-order:fill markers stroke"
             d="M 5.7751729,15.00904 C 8.3545642,22.690085 3.40886,24.377503 1.613,23.498317 -0.18286008,22.619131 -2.1354835,18.024482 5.7751729,15.00904 Z"
             id="path9" /></g></g><g
         id="g23"
         style="display:inline;stroke-width:1.20497"
         transform="matrix(0.95981854,0,0,0.95947867,-0.23286293,-0.02827227)"><path
           id="path21"
           style="display:inline;fill:#2b2d23;stroke-width:1.25563;stroke-linecap:round;stroke-miterlimit:3;paint-order:fill markers stroke"
           d="M 16.912109,4.5585937 -1.2695312,14.005859 c -1.9323662,1.874655 -2.1640626,6.541016 -2.1640626,6.541016 0,0 0.6878712,0.955633 3.11132817,1.101562 -2.90358327,4.588445 1.66520763,8.220426 4.39843753,7.560547 2.5913455,-0.625624 3.9726562,-4.164062 3.9726562,-4.164062 0,0 -9.746905,-2.077068 -0.2753906,-13.410156 1.2361673,2.318516 2.4414065,4.078125 2.4414065,4.078125 0,0 5.987719,-3.289404 6.697265,-10.6093754 0.709546,7.3199714 6.697266,10.6093754 6.697266,10.6093754 0,0 1.207192,-1.759609 2.443359,-4.078125 9.471515,11.333088 -0.27539,13.410156 -0.27539,13.410156 0,0 1.379357,3.538438 3.970703,4.164062 2.73323,0.659879 7.302021,-2.972102 4.398437,-7.560547 2.423457,-0.145929 3.111329,-1.101562 3.111328,-1.101562 0,0 -0.229743,-4.666361 -2.162109,-6.541016 z" /><path
           style="display:inline;fill:url(#linearGradient6);fill-opacity:1;stroke:url(#linearGradient13);stroke-width:3.84078;stroke-linecap:round;stroke-linejoin:round;stroke-miterlimit:3;stroke-dasharray:none;paint-order:fill markers stroke"
           d="m 16.912429,2.6039247 c -5.1984,9.0771213 -17.71418936,10.1602273 -17.71418936,10.1602273 0,0 -0.42019844,-16.1733391 17.71418936,-16.1733391 18.134388,0 17.714189,16.1733391 17.714189,16.1733391 0,0 -12.515789,-1.083106 -17.714189,-10.1602273 z"
           id="path22" /><path
           style="fill:url(#linearGradient19);stroke:url(#linearGradient15);stroke-width:3.32868;stroke-linecap:round;stroke-miterlimit:3;stroke-opacity:1;paint-order:fill markers stroke"
           d="M 0.74196313,7.4911145 C 0.33644683,-1.8548021 3.3198523,-2.5463866 4.4589822,-2.7070686 5.5981121,-2.8677506 8.8887368,-1.2297756 10.72104,2.24679 12.173189,5.0020622 0.88256789,10.731626 0.74196313,7.4911145 Z m 32.34093187,0 c 0.405516,-9.3459166 -2.577889,-10.0375011 -3.717019,-10.1981831 -1.13913,-0.160682 -4.429755,1.477293 -6.262058,4.9538586 -1.452149,2.7552722 9.838472,8.484836 9.979077,5.2443245 z"
           id="path23" /></g></g></g></svg>
