<?xml version="1.0" encoding="UTF-8" standalone="no"?>
<!-- Created with Inkscape (http://www.inkscape.org/) -->

<svg
   version="1.1"
   id="svg1"
   width="913"
   height="248"
   viewBox="0 0 913 248"
   sodipodi:docname="banner.svg"
   inkscape:version="1.4 (86a8ad7, 2024-10-11)"
   xmlns:inkscape="http://www.inkscape.org/namespaces/inkscape"
   xmlns:sodipodi="http://sodipodi.sourceforge.net/DTD/sodipodi-0.dtd"
   xmlns="http://www.w3.org/2000/svg"
   xmlns:svg="http://www.w3.org/2000/svg">
  <defs
     id="defs1">
    <inkscape:path-effect
       effect="fillet_chamfer"
       id="path-effect23"
       is_visible="true"
       lpeversion="1"
       nodesatellites_param="F,0,1,1,0,8,0,1 @ F,0,0,1,0,1,0,1 @ F,0,1,1,0,8,0,1 @ F,0,0,1,0,1,0,1 @ F,0,1,1,0,8,0,1 @ F,0,0,1,0,1,0,1 @ F,0,1,1,0,8,0,1 @ F,0,0,1,0,1,0,1 @ F,0,1,1,0,8,0,1 @ F,0,0,1,0,1,0,1"
       radius="7"
       unit="px"
       method="auto"
       mode="F"
       chamfer_steps="1"
       flexible="false"
       use_knot_distance="true"
       apply_no_radius="true"
       apply_with_radius="true"
       only_selected="true"
       hide_knots="false" />
    <inkscape:path-effect
       effect="fillet_chamfer"
       id="path-effect18"
       is_visible="true"
       lpeversion="1"
       nodesatellites_param="F,0,1,1,0,8,0,1 @ F,0,0,1,0,1,0,1 @ F,0,1,1,0,8,0,1 @ F,0,0,1,0,1,0,1 @ F,0,1,1,0,8,0,1 @ F,0,0,1,0,1,0,1 @ F,0,1,1,0,8,0,1 @ F,0,0,1,0,1,0,1 @ F,0,1,1,0,8,0,1 @ F,0,0,1,0,1,0,1"
       radius="7"
       unit="px"
       method="auto"
       mode="F"
       chamfer_steps="1"
       flexible="false"
       use_knot_distance="true"
       apply_no_radius="true"
       apply_with_radius="true"
       only_selected="true"
       hide_knots="false" />
    <inkscape:path-effect
       effect="fillet_chamfer"
       id="path-effect13"
       is_visible="true"
       lpeversion="1"
       nodesatellites_param="F,0,1,1,0,8,0,1 @ F,0,0,1,0,1,0,1 @ F,0,1,1,0,8,0,1 @ F,0,0,1,0,1,0,1 @ F,0,1,1,0,8,0,1 @ F,0,0,1,0,1,0,1 @ F,0,1,1,0,8,0,1 @ F,0,0,1,0,1,0,1 @ F,0,1,1,0,8,0,1 @ F,0,0,1,0,1,0,1"
       radius="7"
       unit="px"
       method="auto"
       mode="F"
       chamfer_steps="1"
       flexible="false"
       use_knot_distance="true"
       apply_no_radius="true"
       apply_with_radius="true"
       only_selected="true"
       hide_knots="false" />
    <inkscape:path-effect
       effect="fillet_chamfer"
       id="path-effect12"
       is_visible="true"
       lpeversion="1"
       nodesatellites_param="F,0,0,1,0,0,0,1 @ F,0,0,1,0,0,0,1 @ F,0,0,1,0,0,0,1 @ F,0,0,1,0,0,0,1 @ F,0,0,1,0,0,0,1 @ F,0,0,1,0,0,0,1 @ F,0,0,1,0,0,0,1 @ F,0,0,1,0,0,0,1 @ F,0,0,1,0,0,0,1 @ F,0,0,1,0,0,0,1"
       radius="1"
       unit="px"
       method="auto"
       mode="F"
       chamfer_steps="1"
       flexible="false"
       use_knot_distance="true"
       apply_no_radius="true"
       apply_with_radius="true"
       only_selected="false"
       hide_knots="false" />
    <inkscape:path-effect
       effect="fillet_chamfer"
       id="path-effect8"
       is_visible="true"
       lpeversion="1"
       nodesatellites_param="F,0,0,1,0,0,0,1 @ F,0,1,1,0,3,0,1 @ F,0,0,1,0,0,0,1 @ F,0,1,1,0,3,0,1 @ F,0,0,1,0,0,0,1 | F,0,0,1,0,0,0,1 @ F,0,0,1,0,0,0,1 @ F,0,0,1,0,0,0,1 @ F,0,0,1,0,0,0,1 @ F,0,0,1,0,0,0,1"
       radius="3"
       unit="px"
       method="auto"
       mode="F"
       chamfer_steps="1"
       flexible="false"
       use_knot_distance="true"
       apply_no_radius="true"
       apply_with_radius="true"
       only_selected="true"
       hide_knots="false" />
    <inkscape:path-effect
       center_point="457.49652,129.37942"
       end_point="457.49652,245.18918"
       start_point="457.49652,13.56966"
       effect="mirror_symmetry"
       id="path-effect7"
       is_visible="true"
       lpeversion="1.2"
       lpesatellites=""
       mode="free"
       discard_orig_path="false"
       fuse_paths="true"
       oposite_fuse="false"
       split_items="false"
       split_open="false"
       link_styles="false" />
    <inkscape:path-effect
       center_point="457.49652,129.37942"
       end_point="457.49652,245.18918"
       start_point="457.49652,13.56966"
       effect="mirror_symmetry"
       id="path-effect5"
       is_visible="true"
       lpeversion="1.2"
       lpesatellites=""
       mode="free"
       discard_orig_path="false"
       fuse_paths="true"
       oposite_fuse="false"
       split_items="false"
       split_open="false"
       link_styles="false" />
    <inkscape:path-effect
       center_point="457.49652,129.37942"
       end_point="457.49652,245.18918"
       start_point="457.49652,13.56966"
       effect="mirror_symmetry"
       id="path-effect3"
       is_visible="true"
       lpeversion="1.2"
       lpesatellites=""
       mode="free"
       discard_orig_path="false"
       fuse_paths="true"
       oposite_fuse="false"
       split_items="false"
       split_open="false"
       link_styles="false" />
  </defs>
  <sodipodi:namedview
     id="namedview1"
     pagecolor="#505050"
     bordercolor="#eeeeee"
     borderopacity="1"
     inkscape:showpageshadow="0"
     inkscape:pageopacity="0"
     inkscape:pagecheckerboard="0"
     inkscape:deskcolor="#505050"
     inkscape:zoom="0.8203724"
     inkscape:cx="433.33979"
     inkscape:cy="263.29506"
     inkscape:window-width="1600"
     inkscape:window-height="930"
     inkscape:window-x="-6"
     inkscape:window-y="-6"
     inkscape:window-maximized="1"
     inkscape:current-layer="g1" />
  <g
     inkscape:groupmode="layer"
     inkscape:label="Image"
     id="g1">
    <path
       style="display:inline;fill:#ffe612;fill-opacity:1;stroke:#5a1cae;stroke-width:5;stroke-linecap:square;stroke-linejoin:miter;stroke-dasharray:none;stroke-opacity:1;paint-order:fill markers stroke"
       inkscape:path-effect="#path-effect5;#path-effect8"
       inkscape:original-d="m 193.20494,174.92056 c -3.74715,16.09882 -54.7263,51.35714 -153.588785,67.04272 17.661084,-19.37315 36.919324,-35.81818 50.024971,-63.54296 -25.510072,-4.79474 -50.276282,-15.54038 -74.98825,-26.71995 0.437713,0.50524 51.970537,-4.80511 94.812734,-29.30576"
       d="m 193.20494,174.92056 c -3.70955,15.93728 -53.70795,50.65147 -150.627126,66.56465 -1.63496,0.26845 -2.057433,-0.51515 -0.931018,-1.7302 17.092881,-18.43782 35.389348,-34.66906 47.99433,-61.33469 -24.569376,-4.61793 -48.44874,-14.75597 -72.254199,-25.48524 -1.510483,-0.68079 -1.39043,-1.23038 0.253563,-1.39744 11.618318,-1.18067 54.942248,-8.05041 91.82512,-29.14303 m 612.32249,52.52595 c 3.74715,16.09882 54.7263,51.35714 153.58878,67.04272 -17.66108,-19.37315 -36.91932,-35.81818 -50.02497,-63.54296 25.51008,-4.79474 50.27629,-15.54038 74.98825,-26.71995 -0.43771,0.50524 -51.97053,-4.80511 -94.81273,-29.30576"
       id="path3"
       inkscape:label="banner back"
       sodipodi:nodetypes="ccccc" />
    <path
       style="display:inline;fill:#ff8e00;fill-opacity:1;stroke:#5a1cae;stroke-width:5;stroke-linecap:square;stroke-dasharray:none;stroke-opacity:1;paint-order:fill markers stroke"
       inkscape:path-effect="#path-effect7"
       inkscape:original-d="m 140.64818,168.49938 c 5.91099,14.44686 56.39379,-10.06375 52.55676,6.42118 4.31168,-5.01154 -31.48378,-47.50242 -45.50181,-71.57685 l -38.91107,9.10522 z"
       d="m 140.64818,168.49938 c 5.91099,14.44686 56.39379,-10.06375 52.55676,6.42118 4.31168,-5.01154 -31.48378,-47.50242 -45.50181,-71.57685 l -38.91107,9.10522 z m 633.69668,0 c -5.91099,14.44686 -56.39379,-10.06375 -52.55676,6.42118 -4.31168,-5.01154 31.48378,-47.50242 45.50181,-71.57685 l 38.91107,9.10522 z"
       id="path5"
       inkscape:label="banner mid" />
    <path
       style="display:inline;fill:#ffe612;fill-opacity:1;stroke:#5a1cae;stroke-width:5;stroke-linecap:square;stroke-miterlimit:4.7;stroke-dasharray:none;stroke-opacity:1;paint-order:fill markers stroke"
       inkscape:path-effect="#path-effect3"
       inkscape:original-d="m 472.6543,10.34375 c -255.13244,0 -360.37145,53.863442 -372.996097,72.654297 -8.957056,13.331918 40.766007,84.835373 41.259587,86.094533 -7.1724,-18.53317 93.4301,-55.11992 331.73651,-55.11992 z"
       d="M 457.49609,10.408203 C 213.34083,12.488698 112.02986,64.583744 99.658203,82.998047 90.701147,96.329965 140.42439,167.83264 140.91797,169.0918 c -7.01842,-18.1353 89.1597,-53.55584 316.57812,-55.06836 227.41843,1.51252 323.5985,36.93306 316.58008,55.06836 0.49358,-1.25916 50.21487,-72.761835 41.25781,-86.093753 C 802.96232,64.583744 701.65136,12.488698 457.49609,10.408203 Z"
       id="path2"
       inkscape:label="banner front"
       sodipodi:nodetypes="csccc" />
    <path
       id="path33"
       style="fill:#ffffff;fill-opacity:1;stroke:#ffffff;stroke-width:15;stroke-linecap:square;stroke-linejoin:miter;stroke-dasharray:none;stroke-opacity:1;paint-order:fill markers stroke"
       inkscape:label="white outline"
       inkscape:transform-center-x="-0.16595736"
       inkscape:transform-center-y="-2.2148711"
       d="M 545.12695 25.261719 C 531.25734 25.110932 518.2409 30.726593 512.10352 35.261719 C 507.58337 38.601816 510.57255 53.745403 505.18164 88.113281 C 505.16717 88.205518 505.20757 88.329626 505.20508 88.429688 C 505.1959 88.487642 505.19087 88.533732 505.18164 88.591797 C 504.95446 90.021323 506.25845 92.483832 507.3457 93.486328 C 512.87453 98.584185 530.22533 98.697624 535 95.171875 C 537.09348 93.625989 536.3191 80.840092 536.72461 80.632812 L 543.94336 81.183594 C 543.94336 81.183594 555.39674 99.607896 561.61328 102.11133 C 566.34695 104.0176 586.8589 96.696261 587.9707 91.451172 C 598.43545 95.140109 609.38919 93.941771 614.38086 89.552734 C 614.21543 90.282366 614.1151 90.983205 614.13672 91.630859 C 613.82276 102.85342 639.90011 102.3802 639.76953 95.769531 C 648.69726 114.25949 673.96774 117.1347 687.90039 108.55078 C 687.80893 109.28746 687.77252 109.99716 687.8125 110.65039 C 687.90884 112.81845 688.63821 114.46967 689.39453 114.99805 C 695.45152 119.22952 719.91829 125.57063 726.58203 125.16016 C 730.26956 124.93301 733.13141 116.68786 733.08984 111.31836 C 733.09786 109.46009 732.78324 107.9141 732.05273 107.11914 C 728.00127 102.71031 712.76206 104.56215 712.43945 102.59766 C 713.66313 93.122312 718.25219 101.82266 724.63086 99.972656 C 727.06346 99.26713 728.39321 94.728418 728.33984 91.291016 C 728.36438 90.046284 728.24625 88.903733 727.91797 88.097656 C 724.33967 79.311244 715.65193 84.646328 715.22656 84.310547 C 718.32455 73.608431 731.0096 86.629032 739.11719 82.779297 C 741.56095 81.618921 744.13043 75.627128 744.33008 70.511719 C 744.57342 67.476932 744.05535 64.653434 742.26758 63.164062 C 736.69097 58.518259 707.36924 53.615971 701.07227 54.416016 C 699.86557 54.569329 698.48542 56.78485 697.08398 60.261719 C 686.30794 42.746473 659.90959 44.425135 645.79883 58.523438 C 645.89999 55.986364 645.94297 53.636913 645.85742 51.892578 C 645.78778 49.532299 645.6061 47.727664 645.2207 47.128906 C 643.06587 43.781147 631.59091 40.432538 627.28125 40.878906 C 622.97158 41.325273 621.73242 46.291016 621.73242 46.291016 C 621.73242 46.291016 612.89701 37.085409 598.24414 37.308594 C 590.56149 37.425611 584.1894 40.946163 579.42578 46.150391 C 577.46743 37.168532 569.52359 29.729038 554.79102 26.373047 C 551.57347 25.640109 548.32763 25.296515 545.12695 25.261719 z M 376.30859 26.466797 C 369.47184 26.884508 363.55364 28.139339 359.25 30.501953 C 357.39322 29.672567 355.49304 29.179688 353.69727 29.179688 C 346.16918 29.179688 338.70676 34.271899 334.88477 40.048828 C 334.71341 37.509127 334.52675 34.175289 333.16016 33.181641 C 332.87636 31.906619 332.42583 30.882272 331.62891 30.597656 C 328.61214 29.520239 318.44898 30.1677 312.62891 35.238281 C 311.42218 36.289616 310.93597 41.059167 310.90039 47.564453 C 306.19504 41.707446 299.22477 38.175418 291.33984 38.144531 C 280.35188 38.101491 269.30961 44.792307 263.70508 54.947266 C 263.07428 51.459956 262.22364 48.720369 261.09961 47.240234 C 260.5028 45.701608 259.82699 44.491265 259.01172 43.958984 C 256.43503 42.276686 239.27739 43.757184 235.20117 50.53125 C 232.41171 57.142684 239.04685 64.288455 237.45117 80.701172 C 236.85214 86.862663 226.91338 64.902385 215.5918 66.583984 C 204.90459 68.171362 204.79128 89.976815 202.66211 88.564453 C 200.39014 87.057365 198.66173 84.906617 197.25 82.46875 C 194.26408 76.123973 192.86317 68.629409 190.42383 64.535156 C 189.44405 62.176819 188.33404 60.372198 186.82422 59.582031 C 183.49385 57.839076 164.35739 62.962626 161.56445 69.373047 C 160.34459 72.172905 161.97891 77.198269 165.01758 83.009766 C 172.27916 98.485119 192.2376 121.74017 195.98242 123.04102 C 201.51683 124.96354 215.27969 123.10812 219.74805 119.19922 C 222.77495 116.55128 224.23251 104.13019 226.17188 103.69922 C 228.11121 103.26826 234.33873 112.69804 238.00195 115.06836 C 241.66517 117.43868 253.62874 115.52035 259.76562 110.00586 C 262.07768 107.92828 263.79106 98.581354 264.5918 87.660156 C 268.08794 93.956102 273.95417 98.557018 281.57031 100.11328 C 293.30947 102.51203 306.63072 96.587567 313.48828 86.044922 C 314.13832 91.619912 314.81852 96.644704 315.44141 99.841797 C 317.47118 110.26033 340.22157 99.971731 343.37305 95.482422 C 347.0449 90.251831 334.20834 80.856109 337.57031 65.660156 C 338.36979 62.046568 343.26743 58.01666 349.50586 58.789062 C 348.06487 73.745374 348.99666 84.745741 350.86133 88.283203 C 354.79939 95.754101 366.91662 95.675043 374.11133 92.423828 C 378.46958 90.454374 376.09058 68.385839 381.22266 66.523438 C 382.49734 73.528483 384.83413 82.399412 393.10938 83.287109 C 403.29517 83.743979 404.98018 71.432545 407.48047 68.708984 C 406.94548 73.886048 406.72867 84.977959 410.41992 90.902344 C 416.33405 100.39441 434.11263 92.495266 435.81445 87.917969 C 438.28745 81.266481 437.13382 57.710137 429.51758 43.179688 C 427.37317 38.28078 424.44812 34.180019 420.54492 31.728516 C 411.06139 25.772145 401.07241 39.256717 396.01172 45.65625 C 394.00682 48.191563 386.58449 25.838961 376.30859 26.466797 z M 470.39844 34.283203 C 468.93871 34.288403 467.48807 35.258246 466.43555 37.199219 C 464.56018 40.657643 462.78182 44.089639 461.97266 45.662109 C 461.71995 46.153208 461.07957 46.642777 460.53906 46.755859 C 458.61211 47.159003 454.12124 48.101266 449.63281 49.0625 C 445.57614 49.931268 444.46528 52.96392 446.87695 55.964844 C 447.05887 56.91741 447.57259 57.924924 448.53125 58.919922 C 450.87114 61.348511 452.91487 63.454296 454.19336 64.771484 C 454.00617 66.692931 453.589 71.033113 453.19336 75.484375 C 452.74818 80.493163 459.12775 84.145938 463.38086 81.394531 L 471.11328 77.078125 C 471.60665 76.829927 472.41243 76.817876 472.91211 77.050781 C 474.60477 77.839709 478.4336 79.613749 482.33008 81.349609 C 486.36575 83.147484 489.41261 80.928084 488.93359 76.537109 C 488.52231 72.767091 488.07242 69.098033 487.85938 67.392578 C 487.79088 66.844534 488.04649 66.081646 488.42969 65.685547 C 489.6446 64.429753 492.27893 61.691521 494.94141 58.839844 C 498.76413 54.745467 495.70429 49.452155 491.36719 48.578125 C 486.9495 47.687856 482.49271 46.861118 480.56445 46.537109 C 480.0198 46.445589 479.3628 45.982768 479.0957 45.5 C 478.24018 43.953723 476.36446 40.576272 474.41992 37.158203 C 473.32757 35.23811 471.85817 34.277956 470.39844 34.283203 z " />
    <path
       id="path13"
       style="fill:#5a1cad;fill-opacity:1;stroke:#5a1cad;stroke-width:4;stroke-linecap:square;stroke-linejoin:miter;stroke-dasharray:none;stroke-opacity:1;paint-order:fill markers stroke"
       inkscape:label="shadow"
       inkscape:transform-center-x="-0.16595736"
       inkscape:transform-center-y="-2.2148711"
       d="m 376.30859,26.466797 c -6.83675,0.417711 -12.75495,1.672542 -17.05859,4.035156 -1.85678,-0.829386 -3.75696,-1.322265 -5.55273,-1.322265 -7.52809,0 -14.99051,5.092211 -18.8125,10.86914 -0.17136,-2.539701 -0.35802,-5.873539 -1.72461,-6.867187 -0.2838,-1.275022 -0.73433,-2.299369 -1.53125,-2.583985 -3.01677,-1.077417 -13.17993,-0.429956 -19,4.640625 -1.20673,1.051335 -1.69294,5.820886 -1.72852,12.326172 -4.70535,-5.857007 -11.67562,-9.389035 -19.56055,-9.419922 -10.98796,-0.04304 -22.03023,6.647776 -27.63476,16.802735 -0.6308,-3.48731 -1.48144,-6.226897 -2.60547,-7.707032 -0.59681,-1.538626 -1.27262,-2.748969 -2.08789,-3.28125 -2.57669,-1.682298 -19.73433,-0.2018 -23.81055,6.572266 -2.78946,6.611434 3.84568,13.757205 2.25,30.169922 -0.59903,6.161491 -10.53779,-15.798787 -21.85937,-14.117188 -10.68721,1.587378 -10.80052,23.392831 -12.92969,21.980469 -2.27197,-1.507088 -4.00038,-3.657836 -5.41211,-6.095703 -2.98592,-6.344777 -4.38683,-13.839341 -6.82617,-17.933594 -0.97978,-2.358337 -2.08979,-4.162958 -3.59961,-4.953125 -3.33037,-1.742955 -22.46683,3.380595 -25.25977,9.791016 -1.21986,2.799858 0.41446,7.825222 3.45313,13.636719 7.26158,15.475353 27.22002,38.730404 30.96484,40.031254 5.53441,1.92252 19.29727,0.0671 23.76563,-3.8418 3.0269,-2.64794 4.48446,-15.06903 6.42383,-15.5 1.93933,-0.43096 8.16685,8.99882 11.83007,11.36914 3.66322,2.37032 15.62679,0.45199 21.76367,-5.0625 2.31206,-2.07758 4.02544,-11.424506 4.82618,-22.345704 3.49614,6.295946 9.36237,10.896861 16.97851,12.453124 11.73916,2.39875 25.06041,-3.525713 31.91797,-14.068358 0.65004,5.57499 1.33024,10.599782 1.95313,13.796875 2.02977,10.418533 24.78016,0.129934 27.93164,-4.359375 3.67185,-5.230591 -9.16471,-14.626313 -5.80274,-29.822266 0.79948,-3.613588 5.69712,-7.643496 11.93555,-6.871094 -1.44099,14.956312 -0.5092,25.956679 1.35547,29.494141 3.93806,7.470898 16.05529,7.39184 23.25,4.140625 4.35825,-1.969454 1.97925,-24.037988 7.11133,-25.90039 1.27468,7.005046 3.61148,15.875974 11.88672,16.763671 10.1858,0.45687 11.8708,-11.854564 14.37109,-14.578125 -0.53499,5.177064 -0.7518,16.268975 2.93945,22.19336 5.91413,9.492066 23.69271,1.592922 25.39453,-2.984375 2.473,-6.651488 1.31937,-30.207832 -6.29687,-44.738281 -2.14441,-4.898908 -5.06946,-8.999669 -8.97266,-11.451172 -9.48353,-5.956371 -19.47251,7.528201 -24.5332,13.927734 -2.0049,2.535313 -9.42723,-19.817289 -19.70313,-19.189453 z m 168.81836,-1.204361 c -13.86961,-0.150787 -26.88605,5.464169 -33.02343,9.999295 -4.52015,3.340097 -1.53125,18.483342 -6.92216,52.85122 -0.22718,1.44827 1.07727,3.941513 2.16452,4.957154 5.52883,5.164699 22.87945,5.279945 27.65412,1.707967 2.09348,-1.566156 1.3191,-14.518885 1.72461,-14.728883 l 7.21875,0.558325 c 0,0 11.45338,18.665972 17.66992,21.202226 4.73367,1.93127 25.24559,-5.486211 26.35739,-10.800073 10.51271,3.754436 21.52889,2.518041 26.48831,-1.978712 -3.8904,13.579825 25.44895,13.452765 25.31055,6.353992 8.92977,18.736683 34.20998,21.646413 48.14063,12.942643 -0.46457,3.21727 0.49734,5.83949 1.48437,6.53809 6.05699,4.28695 30.52376,10.71033 37.1875,10.29448 4.89089,-0.30522 8.34157,-14.91739 5.4716,-18.04059 -4.12756,-4.49164 -19.90627,-2.47672 -19.65324,-4.6281 1.17769,-9.986499 5.79938,-0.95861 12.23047,-2.848278 3.1725,-0.932183 4.51622,-8.526799 3.28693,-11.545284 -3.70237,-9.091074 -13.06312,-2.951071 -12.88068,-3.737876 2.77892,-11.998711 15.818,1.838426 24.0799,-2.136021 3.74011,-1.799207 7.8885,-15.113023 3.15057,-19.060139 -5.57661,-4.645804 -34.89834,-9.547152 -41.19531,-8.747107 -1.2067,0.153313 -2.58685,2.367347 -3.98829,5.844216 -10.77829,-17.518901 -37.18634,-15.836027 -51.29492,-1.729597 0.27485,-5.870922 0.12304,-10.329046 -0.56836,-11.403201 -2.15483,-3.347759 -13.62979,-6.69517 -17.93945,-6.248802 -4.30967,0.446367 -5.54883,5.411313 -5.54883,5.411313 0,0 -8.83541,-9.204951 -23.48828,-8.981766 -7.68265,0.117017 -14.05474,3.637956 -18.81836,8.842184 -1.95835,-8.981859 -9.90219,-16.422101 -24.63476,-19.778092 -3.21755,-0.732938 -6.46339,-1.075788 -9.66407,-1.110584 z m -74.72851,9.020767 c -1.45973,0.0052 -2.91037,0.975043 -3.96289,2.916016 -1.87537,3.458424 -3.65373,6.89042 -4.46289,8.46289 -0.25271,0.491099 -0.89309,0.980668 -1.4336,1.09375 -1.92695,0.403144 -6.41782,1.345407 -10.90625,2.306641 -4.05667,0.868768 -5.16753,3.90142 -2.75586,6.902344 0.18192,0.952566 0.69564,1.96008 1.6543,2.955078 2.33989,2.428589 4.38362,4.534374 5.66211,5.851562 -0.18719,1.921447 -0.60436,6.261629 -1,10.712891 -0.44518,5.008788 5.93439,8.661563 10.1875,5.910156 l 7.73242,-4.316406 c 0.49337,-0.248198 1.29915,-0.260245 1.79883,-0.02734 1.69266,0.788928 5.52149,2.562968 9.41797,4.298828 4.03567,1.797875 7.08253,-0.421525 6.60351,-4.8125 -0.41128,-3.770018 -0.86117,-7.439076 -1.07421,-9.144531 -0.0685,-0.548044 0.18711,-1.310932 0.57031,-1.707031 1.21491,-1.255794 3.84924,-3.994026 6.51172,-6.845703 3.82272,-4.094377 0.76288,-9.387689 -3.57422,-10.261719 -4.41769,-0.890269 -8.87448,-1.717007 -10.80274,-2.041016 -0.54465,-0.09152 -1.20165,-0.554341 -1.46875,-1.037109 -0.85552,-1.546277 -2.73124,-4.923728 -4.67578,-8.341797 -1.09235,-1.920093 -2.56175,-2.880247 -4.02148,-2.875 z m 70.70508,14.960954 c 3.4685,-0.05582 7.39406,1.064394 7.22265,6.479415 -0.30474,9.626702 -12.64648,9.153715 -12.64648,9.153713 l 0.30469,-14.836096 c 0,0 2.42142,-0.753609 5.11914,-0.797032 z M 288.36328,59.371094 c 2.83615,0.09367 5.53978,1.144459 6.82813,3.957031 0.73721,1.609393 0.85242,3.625423 0.42382,5.722656 -1.13043,5.531402 -6.1482,9.176585 -11.20703,8.142578 -2.35634,-0.481628 -4.06285,-1.541005 -5.35937,-4.009765 -0.85458,-1.62725 -0.97345,-3.523935 -0.56836,-5.50586 1.01799,-4.980662 5.22912,-8.518931 9.88281,-8.30664 z m 320.90039,3.329529 c 3.11606,-0.01938 6.24554,1.013159 7.94336,2.059333 l -0.86133,9.819256 c -0.6956,7.929921 -18.35738,2.423364 -15.51562,-6.248801 1.38784,-4.23525 4.90205,-5.607826 8.43359,-5.629788 z m 66.36914,8.552907 c 4.37522,0.234209 6.83241,4.60586 10.33594,4.954132 1.74641,0.173604 4.59528,-1.255171 7.19727,-3.269039 -1.52496,6.080063 -2.86263,12.883461 -3.81836,19.246064 -2.54109,-3.007904 -5.45176,-5.139634 -6.68555,-4.486837 -9.98198,5.281484 -17.95648,0.336963 -18.58594,-7.507058 -0.39474,-4.919035 4.18368,-9.331942 11.55664,-8.937262 z"
       sodipodi:nodetypes="scsccsscsccscsssccsscssssscsccsscsscccsscssssssssccsccccssscsscsssccsscscssssssscscsccsssssssssssscccscssssscsccsscsccscss" />
    <path
       style="fill:#007fff;fill-opacity:1;stroke:#5b1cb1;stroke-width:4;stroke-linecap:square;stroke-linejoin:round;stroke-miterlimit:1;stroke-dasharray:none;stroke-opacity:1;paint-order:fill markers stroke"
       d="m 700.36275,53.132609 c -6.25651,0.784615 -17.15836,55.836531 -11.67757,59.665481 6.05699,4.23148 30.52406,10.62882 37.1878,10.20917 4.29235,-0.2703 8.5051,-13.18121 5.96753,-15.90688 -4.12755,-4.43352 -20.40168,-4.39178 -20.14864,-6.51532 l 0.52023,-4.365818 c 0.61523,-0.682655 9.15958,2.292851 11.71005,1.553138 3.1725,-0.920122 4.3597,-7.971383 3.01677,-10.899083 -1.00883,-2.199333 -12.79365,-3.408989 -12.6112,-4.185611 l 1.07742,-4.586113 c 0.40572,-1.726964 18.36228,4.829287 22.73351,2.753691 3.74011,-1.775921 8.15728,-15.194067 3.41935,-19.090099 -5.57661,-4.585676 -34.89828,-9.422246 -41.19525,-8.632556 z"
       id="path29"
       sodipodi:nodetypes="ssssscsssssss"
       inkscape:label="e" />
    <path
       id="path28"
       style="fill:#6aff17;fill-opacity:1;stroke:#5b1cb1;stroke-width:4;stroke-linecap:square;stroke-linejoin:round;stroke-miterlimit:1;stroke-dasharray:none;stroke-opacity:1;paint-order:fill markers stroke"
       d="m 636.5957,86.220637 c 5.77662,28.039983 42.68072,30.626093 55.62861,15.976113 4.19018,-4.74101 -7.44391,-17.690207 -10.27119,-16.213646 -9.98199,5.21313 -18.80305,0.453877 -18.58593,-7.40998 -9e-5,-4.872114 5.17408,-8.82174 11.55664,-8.821598 4.38106,0.0027 6.8324,4.546255 10.33593,4.890019 4.19093,0.411213 14.74447,-8.240632 12.94711,-12.296132 C 684.60619,31.657392 628.73801,48.082137 636.5957,86.220637 Z"
       sodipodi:nodetypes="cssccssc"
       inkscape:label="c" />
    <path
       id="path25"
       style="fill:#ff8e00;fill-opacity:1;stroke:#5b1cb1;stroke-width:4;stroke-linecap:square;stroke-linejoin:round;stroke-miterlimit:1;stroke-dasharray:none;stroke-opacity:1;paint-order:fill markers stroke"
       inkscape:label="a"
       d="m 597.53516,36.24627 c -14.65288,0.220295 -24.54763,12.650036 -27.58204,25.554269 -6.58236,27.992538 34.78469,34.097838 43.79688,25.498359 0,0 -0.88313,5.788409 1.61719,8.31642 3.10774,3.142153 20.95291,3.42221 23.11133,-0.770741 5.16115,-10.02604 8.18804,-45.601705 6.0332,-48.906134 -2.15483,-3.30443 -13.62979,-6.608518 -17.93945,-6.167928 -4.30967,0.440591 -5.54883,5.341277 -5.54883,5.341277 0,0 -8.83541,-9.085817 -23.48828,-8.865522 z m 11.01953,25.063071 c 3.11606,-0.01913 6.24554,1.000047 7.94336,2.032681 l -0.86133,9.692172 c -6.57484,4.303697 -18.35739,2.391999 -15.51563,-6.167928 1.38784,-4.180436 4.90206,-5.535249 8.4336,-5.556925 z"
       sodipodi:nodetypes="sscsssscssccss" />
    <path
       id="path24"
       style="fill:#ff54a0;fill-opacity:1;stroke:#5b1cb1;stroke-width:4;stroke-linecap:square;stroke-linejoin:round;stroke-miterlimit:1;stroke-dasharray:none;stroke-opacity:1;paint-order:fill markers stroke"
       d="m 544.41797,24.354931 c -13.86961,-0.148836 -26.88606,5.393448 -33.02344,9.869881 -4.52015,3.296868 -1.42348,19.565903 -6.16797,53.37883 -1.18135,8.419268 23.30994,9.616536 29.06446,5.367235 2.09348,-1.545886 1.31909,-14.330978 1.7246,-14.538258 l 7.21876,0.551099 c 0,0 11.45338,18.424394 17.66992,20.927829 5.08801,2.048963 27.67144,-7.455629 25.64258,-12.557498 -2.43792,-6.130472 -19.3418,-20.266902 -19.3418,-20.266902 0,0 12.01367,-6.789596 12.01367,-17.623221 0,-10.833624 -7.97647,-20.154374 -25.13672,-24.012786 -3.21755,-0.723452 -6.46338,-1.061863 -9.66406,-1.096209 z m -4.02344,23.671343 c 3.4685,-0.05511 7.39407,1.050618 7.22266,6.395556 -0.30474,9.502111 -12.64649,9.035245 -12.64649,9.035244 l 0.30469,-14.644084 c 0,0 2.42142,-0.743855 5.11914,-0.786716 z"
       inkscape:label="r"
       sodipodi:nodetypes="ssssccsscsssssccs" />
    <path
       id="path12"
       transform="translate(12.189586,21.257833)"
       inkscape:transform-center-x="-0.16595736"
       inkscape:transform-center-y="-2.2148711"
       d="m 468.95486,57.721612 c -3.89648,-1.735861 -7.72555,-3.510354 -9.41821,-4.299282 -0.49968,-0.232893 -1.30426,-0.221454 -1.79763,0.02674 l -10.24671,5.154759 c -3.94697,1.985586 -6.88064,0.02322 -6.48948,-4.37766 0.39744,-4.471524 0.81967,-8.853327 1.00559,-10.761142 0.0535,-0.549471 -0.21467,-1.315829 -0.59947,-1.71202 -1.17315,-1.207878 -3.66853,-3.780065 -6.25254,-6.462025 -3.06549,-3.181688 -2.03315,-6.560478 2.28715,-7.485705 4.48843,-0.961233 8.97803,-1.903233 10.90497,-2.306377 0.54051,-0.113083 1.18231,-0.60326 1.43502,-1.094359 0.80916,-1.57247 2.58773,-5.004232 4.4631,-8.462658 2.10504,-3.881944 5.79911,-3.882054 7.9838,-0.04187 1.94454,3.418069 3.82022,6.795455 4.67573,8.341731 0.26711,0.482768 0.92489,0.946146 1.46954,1.037664 1.92826,0.324009 6.39469,1.099321 10.80154,2.041826 4.31881,0.923678 5.40445,4.660389 2.38944,7.889652 -2.66249,2.851676 -5.29814,5.589301 -6.51304,6.845095 -0.3832,0.3961 -0.63814,1.160499 -0.56967,1.708543 0.21305,1.705455 0.66338,5.374651 1.07466,9.144669 0.47901,4.390975 -2.56811,6.610287 -6.60379,4.812412 z"
       style="fill:#db8ef9;fill-opacity:1;stroke:#5a1cad;stroke-width:4;stroke-linecap:square;stroke-linejoin:miter;stroke-dasharray:none;stroke-opacity:1;paint-order:fill markers stroke"
       inkscape:original-d="m 476.30807,60.871743 c -6.13386,-2.451199 -17.67572,-7.872071 -17.67572,-7.872071 l -18.28667,9.199383 c 0.51476,-7.137595 1.76022,-19.728878 1.76022,-19.728878 0,0 -8.19793,-8.427134 -12.47868,-12.960655 6.78432,-1.523275 19.70005,-4.215099 19.70005,-4.215099 0,0 5.63363,-11.055987 8.87099,-16.3036153 3.20538,5.2511133 9.19086,16.1254573 9.19086,16.1254573 0,0 13.13845,2.111349 19.54209,4.160565 -4.08721,4.783245 -12.57227,13.495515 -12.57227,13.495515 0,0 1.5406,12.039468 1.94913,18.099398 z"
       inkscape:path-effect="#path-effect13"
       sodipodi:nodetypes="ccccccccccc"
       inkscape:label="star" />
    <path
       style="fill:#007fff;fill-opacity:1;stroke:#5a1cad;stroke-width:4;stroke-linecap:square;stroke-linejoin:miter;stroke-dasharray:none;stroke-opacity:1;paint-order:fill markers stroke"
       d="m 352.12667,39.694583 c -4.37204,24.650347 -4.58205,45.590976 -0.45711,48.758344 4.26635,3.275952 14.04776,4.857028 21.25559,1.599883 4.47134,-2.020558 1.12395,-18.558223 6.47572,-25.369576 3.35213,-4.266355 -0.22151,15.661135 12.52364,16.232801 10.22985,0.458845 11.88282,-11.975979 14.40119,-14.627503 4.19558,-4.417412 -1.88838,15.727243 4.51115,24.063603 4.13794,5.390296 21.82407,0.565684 23.90106,-5.020679 3.12452,-8.403855 1.36816,-43.829774 -14.1926,-53.6031 -9.48353,-5.956372 -19.47379,7.528466 -24.53448,13.927999 -2.0049,2.535313 -9.42684,-19.816695 -19.70274,-19.188859 -12.93459,0.790277 -22.63945,4.53316 -24.18142,13.227087 z"
       id="path11"
       sodipodi:nodetypes="ssssssssssss"
       inkscape:label="m" />
    <path
       style="fill:#6aff17;fill-opacity:1;stroke:#5a1cad;stroke-width:4;stroke-linecap:square;stroke-linejoin:miter;stroke-dasharray:none;stroke-opacity:1;paint-order:fill markers stroke"
       d="m 312.62955,35.239205 c -4.13723,3.604454 0.0153,50.248337 2.81211,64.603584 1.20139,6.166431 23.10106,-1.539879 26.7461,-6.732271 3.67185,-5.230591 -9.16471,-14.625537 -5.80274,-29.82149 1.20792,-5.459728 11.7264,-12.030768 22.17948,-1.229787 2.65816,2.74663 12.41849,-8.486157 12.23027,-17.27565 -0.15237,-7.11544 -9.55521,-15.604065 -17.09713,-15.604065 -7.54192,0 -15.02073,5.110347 -18.83632,10.9004 -2.0157,3.058777 -0.21548,-8.403855 -3.23225,-9.481273 -3.01677,-1.077417 -13.17945,-0.430029 -18.99952,4.640552 z"
       id="path10"
       sodipodi:nodetypes="ssssssssss"
       inkscape:label="r" />
    <path
       id="path9"
       style="fill:#ff8e00;fill-opacity:1;stroke:#5a1cad;stroke-width:4;stroke-linecap:square;stroke-linejoin:miter;stroke-dasharray:none;stroke-opacity:1;paint-order:fill markers stroke"
       d="m 291.33984,38.1446 c -13.81812,-0.05413 -27.81706,10.478276 -30.83619,25.252057 -3.35294,16.407226 4.87499,31.279332 19.88065,34.345547 15.00503,3.066086 32.62983,-7.443065 35.98288,-23.849558 C 320.48374,53.750293 307.9269,38.209575 291.33984,38.1446 Z m -4.16211,18.855467 c 4.97398,0.226902 9.82542,5.259406 8.43751,12.050783 -1.13043,5.531402 -6.1482,9.176584 -11.20704,8.142577 -5.05868,-1.033975 -8.2438,-6.355515 -7.11328,-11.886719 1.018,-4.980662 5.22912,-8.518932 9.88281,-8.306641 z"
       sodipodi:nodetypes="ssssssssss"
       inkscape:label="o" />
    <path
       style="fill:#ff54a0;fill-opacity:1;stroke:#5a1cad;stroke-width:4;stroke-linecap:square;stroke-linejoin:miter;stroke-dasharray:none;stroke-opacity:1;paint-order:fill markers stroke"
       d="m 161.56481,69.372607 c 2.79294,-6.410421 21.929,-11.534381 25.25937,-9.791426 6.00773,3.14416 5.7213,22.271703 15.83803,28.982527 2.12917,1.412362 2.2418,-20.391936 12.92901,-21.979314 11.32158,-1.681599 21.26171,20.277901 21.86074,14.11641 1.59568,-16.412717 -5.04121,-23.558495 -2.25175,-30.169929 4.07622,-6.774066 21.23423,-8.254545 23.81092,-6.572247 7.58424,4.951676 5.51975,58.328172 -0.43096,63.675372 -6.13689,5.51449 -18.10061,7.43418 -21.76383,5.06386 -3.66322,-2.37032 -9.89152,-11.80154 -11.83087,-11.37058 -1.93935,0.43097 -3.39521,12.8538 -6.42211,15.50174 -4.46836,3.90893 -18.23189,5.76424 -23.7663,3.84172 -4.90322,-1.70325 -37.67902,-41.091827 -33.23225,-51.298133 z"
       id="path8"
       sodipodi:nodetypes="sssssssssssss"
       inkscape:label="w" />
  </g>
</svg>
