<?xml version="1.0" encoding="UTF-8" standalone="no"?>
<!-- Created with Inkscape (http://www.inkscape.org/) -->

<svg
   width="34.288174"
   height="50.01107"
   viewBox="0 0 9.0720788 13.232096"
   version="1.1"
   id="svg1"
   xmlns="http://www.w3.org/2000/svg"
   xmlns:svg="http://www.w3.org/2000/svg">
  <defs
     id="defs1" />
  <g
     id="g4"
     style="display:none"
     transform="translate(-4.1564409,6.6927522e-4)">
    <g
       id="g5"
       style="display:none">
      <path
         style="fill:none;stroke:#000000;stroke-width:3.175;stroke-linecap:round;stroke-linejoin:round;stroke-miterlimit:1;stroke-dasharray:none;stroke-opacity:1;paint-order:fill markers stroke"
         d="M 1.5875,1.5875 11.641667,11.641667"
         id="path1" />
      <path
         style="fill:none;stroke:#000000;stroke-width:3.175;stroke-linecap:round;stroke-linejoin:round;stroke-miterlimit:1;stroke-dasharray:none;stroke-opacity:1;paint-order:fill markers stroke"
         d="M 11.641667,1.5875 1.5875,11.641667"
         id="path2" />
    </g>
    <path
       id="path3"
       style="fill:#000000;fill-opacity:1;stroke:none;stroke-linecap:round;stroke-linejoin:round;stroke-miterlimit:1;paint-order:fill markers stroke"
       d="m 0.46508789,0.46508789 c -0.62048662,0.62004801 -0.62048662,1.62580971 0,2.24585771 L 4.3697591,6.6151001 0.46508789,10.519771 c -0.61910911,0.619811 -0.61910911,1.62398 0,2.243791 0.62004801,0.620487 1.62580971,0.620487 2.24585771,0 L 6.6151001,8.8594076 10.519771,12.763562 c 0.619811,0.619109 1.62398,0.619109 2.243791,0 0.619109,-0.619811 0.619109,-1.62398 0,-2.243791 L 8.8594076,6.6151001 12.763562,2.7109456 c 0.620487,-0.620048 0.620487,-1.6258097 0,-2.24585771 -0.618458,-0.61859122 -1.625279,-0.61864442 -2.243791,0 L 6.6151001,4.3697591 2.7109456,0.46508789 c -0.6186569,-0.6187891 -1.6271506,-0.6188393 -2.24585771,0 z" />
  </g>
  <g
     id="layer1"
     style="display:none"
     transform="translate(-4.1564409,6.6927522e-4)">
    <g
       id="g7"
       style="display:none">
      <path
         style="fill:none;fill-opacity:1;stroke:#000000;stroke-width:3.175;stroke-linecap:round;stroke-linejoin:round;stroke-miterlimit:1;stroke-dasharray:none;stroke-opacity:1;paint-order:fill markers stroke"
         d="M 1.5875,1.5875 H 11.641667"
         id="path5" />
      <path
         style="fill:none;fill-opacity:1;stroke:#000000;stroke-width:3.175;stroke-linecap:round;stroke-linejoin:round;stroke-miterlimit:1;stroke-dasharray:none;stroke-opacity:1;paint-order:fill markers stroke"
         d="M 1.5875,6.6145833 H 11.641667"
         id="path6" />
      <path
         style="fill:none;fill-opacity:1;stroke:#000000;stroke-width:3.175;stroke-linecap:round;stroke-linejoin:round;stroke-miterlimit:1;stroke-dasharray:none;stroke-opacity:1;paint-order:fill markers stroke"
         d="M 1.5875,11.641667 H 11.641667"
         id="path7" />
    </g>
    <path
       id="path10"
       style="stroke-linecap:round;stroke-linejoin:round;stroke-miterlimit:1;paint-order:fill markers stroke"
       d="M 1.5880168,0 A 1.5875,1.5875 0 0 0 0,1.5880168 1.5875,1.5875 0 0 0 1.5880168,3.1760335 H 11.6427 A 1.5875,1.5875 0 0 0 13.22865,1.5880168 1.5875,1.5875 0 0 0 11.6427,0 Z m 0,5.0276001 A 1.5875,1.5875 0 0 0 0,6.6151001 1.5875,1.5875 0 0 0 1.5880168,8.2010498 H 11.6427 a 1.5875,1.5875 0 0 0 1.58595,-1.5859497 1.5875,1.5875 0 0 0 -1.58595,-1.5875 z m 0,5.0270829 A 1.5875,1.5875 0 0 0 0,11.6427 1.5875,1.5875 0 0 0 1.5880168,13.22865 H 11.6427 A 1.5875,1.5875 0 0 0 13.22865,11.6427 1.5875,1.5875 0 0 0 11.6427,10.054683 Z" />
  </g>
  <g
     id="layer2"
     transform="translate(-4.1564409,6.6927522e-4)">
    <path
       style="display:none;fill:none;fill-opacity:1;stroke:#000000;stroke-width:3.175;stroke-linecap:round;stroke-linejoin:round;stroke-miterlimit:1;stroke-dasharray:none;stroke-opacity:1;paint-order:fill markers stroke"
       d="M 11.641667,1.5875 5.7434656,6.5999129 11.641667,11.641667 Z"
       id="path11" />
    <path
       style="fill:#000000;fill-opacity:1;stroke:none;stroke-linecap:round;stroke-linejoin:round;stroke-miterlimit:1;paint-order:fill markers stroke"
       d="m 12.308594,0.14648437 c -0.561707,-0.26027536 -1.223473,-0.1703117 -1.695313,0.23046876 L 4.7148437,5.390625 c -0.743748,0.6332579 -0.7446748,1.781558 -0.00195,2.4160156 l 5.8964843,5.0410154 c 1.029664,0.879979 2.617553,0.149384 2.619141,-1.205078 V 1.5878906 C 13.228906,0.96922546 12.869882,0.40668097 12.308594,0.14648437 Z"
       id="path12" />
  </g>
</svg>
