<?xml version="1.0" encoding="UTF-8" standalone="no"?>
<!-- Created with Inkscape (http://www.inkscape.org/) -->

<svg
   width="50.000145"
   height="49.995403"
   viewBox="0 0 13.229204 13.227951"
   version="1.1"
   id="svg1"
   xmlns="http://www.w3.org/2000/svg"
   xmlns:svg="http://www.w3.org/2000/svg">
  <defs
     id="defs1" />
  <g
     id="layer1"
     transform="translate(2.7707501e-4,-9.7723976e-4)">
    <path
       style="fill:none;stroke:#000000;stroke-width:3.175;stroke-linecap:round;stroke-linejoin:round;stroke-miterlimit:1;stroke-dasharray:none;stroke-opacity:1;paint-order:fill markers stroke"
       d="M 1.5875,1.5875 11.641667,11.641667"
       id="path1" />
    <path
       style="fill:none;stroke:#000000;stroke-width:3.175;stroke-linecap:round;stroke-linejoin:round;stroke-miterlimit:1;stroke-dasharray:none;stroke-opacity:1;paint-order:fill markers stroke"
       d="M 11.641667,1.5875 1.5875,11.641667"
       id="path2" />
  </g>
  <g
     id="g4"
     transform="translate(2.7707501e-4,-9.7723976e-4)">
    <path
       id="path3"
       style="fill:#000000;fill-opacity:1;stroke:none;stroke-linecap:round;stroke-linejoin:round;stroke-miterlimit:1;paint-order:fill markers stroke"
       d="m 0.46508789,0.46508789 c -0.62048662,0.62004801 -0.62048662,1.62580971 0,2.24585771 L 4.3697591,6.6151001 0.46508789,10.519771 c -0.61910911,0.619811 -0.61910911,1.62398 0,2.243791 0.62004801,0.620487 1.62580971,0.620487 2.24585771,0 L 6.6151001,8.8594076 10.519771,12.763562 c 0.619811,0.619109 1.62398,0.619109 2.243791,0 0.619109,-0.619811 0.619109,-1.62398 0,-2.243791 L 8.8594076,6.6151001 12.763562,2.7109456 c 0.620487,-0.620048 0.620487,-1.6258097 0,-2.24585771 -0.618458,-0.61859122 -1.625279,-0.61864442 -2.243791,0 L 6.6151001,4.3697591 2.7109456,0.46508789 c -0.6186569,-0.6187891 -1.6271506,-0.6188393 -2.24585771,0 z" />
  </g>
</svg>
