<?xml version="1.0" encoding="UTF-8" standalone="no"?>
<!-- Created with Inkscape (http://www.inkscape.org/) -->

<svg
   version="1.1"
   id="svg1"
   width="187.81076"
   height="250"
   viewBox="0 0 187.81076 250"
   sodipodi:docname="mobile.svg"
   inkscape:version="1.4 (86a8ad7, 2024-10-11)"
   xmlns:inkscape="http://www.inkscape.org/namespaces/inkscape"
   xmlns:sodipodi="http://sodipodi.sourceforge.net/DTD/sodipodi-0.dtd"
   xmlns="http://www.w3.org/2000/svg"
   xmlns:svg="http://www.w3.org/2000/svg">
  <sodipodi:namedview
     id="namedview1"
     pagecolor="#505050"
     bordercolor="#eeeeee"
     borderopacity="1"
     inkscape:showpageshadow="0"
     inkscape:pageopacity="0"
     inkscape:pagecheckerboard="0"
     inkscape:deskcolor="#505050"
     inkscape:zoom="0.708"
     inkscape:cx="-72.033898"
     inkscape:cy="118.64407"
     inkscape:window-width="1600"
     inkscape:window-height="930"
     inkscape:window-x="-6"
     inkscape:window-y="-6"
     inkscape:window-maximized="1"
     inkscape:current-layer="svg1" />
  <defs
     id="defs1">
    <clipPath
       clipPathUnits="userSpaceOnUse"
       id="clipPath5">
      <path
         style="opacity:0.322;fill:#6723fe;fill-opacity:1;stroke:#5911b4;stroke-width:10;stroke-linecap:round;stroke-linejoin:round;stroke-dasharray:none;stroke-opacity:1;paint-order:fill markers stroke"
         d="M 238.19911,46.940704 V 170.78427 H 341.06916 V 47.440073 Z"
         id="path6" />
    </clipPath>
  </defs>
  <g
     id="g1"
     transform="translate(-195.95332,1.332953)">
    <path
       id="path5"
       style="fill:none;stroke:#c3f92e;stroke-width:40;stroke-linecap:round;stroke-linejoin:round;stroke-dasharray:none;stroke-opacity:1;paint-order:fill markers stroke"
       d="m 302.34293,197.82338 a 12.48423,12.48423 0 0 1 -12.48423,12.48423 12.48423,12.48423 0 0 1 -12.48423,-12.48423 12.48423,12.48423 0 0 1 12.48423,-12.48423 12.48423,12.48423 0 0 1 12.48423,12.48423 z M 238.42367,46.015141 V 169.8587 H 341.29373 V 46.51451 Z M 363.76408,226.78426 H 215.95332 V 20.549834 h 147.81076 z"
       inkscape:label="outline" />
    <path
       style="opacity:1;fill:#ffffff;fill-opacity:1;stroke:none;stroke-width:10;stroke-linecap:round;stroke-linejoin:round;stroke-dasharray:none;stroke-opacity:1;paint-order:fill markers stroke"
       d="M 364.03762,227.70983 H 216.22686 V 21.475397 h 147.81076 z"
       id="path2"
       inkscape:label="phone" />
    <path
       style="opacity:1;fill:#6723fe;fill-opacity:1;stroke:none;stroke-width:10;stroke-linecap:round;stroke-linejoin:round;stroke-dasharray:none;stroke-opacity:1;paint-order:fill markers stroke"
       d="M 238.69721,46.940704 V 170.78427 H 341.56727 V 47.440073 Z"
       id="path3"
       inkscape:label="screen" />
    <path
       style="fill:#2161ff;fill-opacity:1;stroke:none;stroke-width:10;stroke-linecap:round;stroke-linejoin:round;stroke-dasharray:none;stroke-opacity:1;paint-order:fill markers stroke"
       d="M 218.72371,170.2849 326.58745,14.981075 350.55718,15.480444 230.70857,181.77039 h 21.97224 l 104.86753,-140.322748 -1.4981,143.818328 -140.32275,0.49937 z"
       id="path4"
       clip-path="url(#clipPath5)"
       inkscape:label="screen highlight" />
    <path
       id="path7"
       style="fill:#6723fe;stroke:none;stroke-width:10;stroke-linecap:round;stroke-linejoin:round;paint-order:fill markers stroke"
       d="m 302.61647,198.74895 a 12.48423,12.48423 0 0 1 -12.48423,12.48423 12.48423,12.48423 0 0 1 -12.48423,-12.48423 12.48423,12.48423 0 0 1 12.48423,-12.48423 12.48423,12.48423 0 0 1 12.48423,12.48423 z"
       inkscape:label="button" />
    <path
       id="path7-5"
       style="fill:none;stroke:#5911b4;stroke-width:14;stroke-linecap:round;stroke-linejoin:round;stroke-dasharray:none;paint-order:fill markers stroke"
       d="m 302.34293,197.82338 a 12.48423,12.48423 0 0 1 -12.48423,12.48423 12.48423,12.48423 0 0 1 -12.48423,-12.48423 12.48423,12.48423 0 0 1 12.48423,-12.48423 12.48423,12.48423 0 0 1 12.48423,12.48423 z M 238.42367,46.015141 V 169.8587 H 341.29373 V 46.51451 Z M 363.76408,226.78426 H 215.95332 V 20.549834 h 147.81076 z"
       inkscape:label="outline" />
  </g>
</svg>
