<?xml version="1.0" encoding="UTF-8" standalone="no"?>
<!-- Created with Inkscape (http://www.inkscape.org/) -->

<svg
   width="109.91806mm"
   height="110.89891mm"
   viewBox="0 0 109.91806 110.89891"
   version="1.1"
   id="svg1"
   xml:space="preserve"
   xmlns="http://www.w3.org/2000/svg"
   xmlns:svg="http://www.w3.org/2000/svg"><defs
     id="defs1" /><g
     id="layer1"
     transform="translate(-27.613337,-37.974311)"><path
       style="fill:#0e0e16;stroke:none"
       d="m 82.071746,38.069454 c -1.50475,0.539421 -2.19601,3.983993 -2.72443,5.348223 -1.92634,4.97321 -3.84991,10.131176 -6.41534,14.816656 -7.086451,12.94267 -16.403018,21.88647 -30.047147,27.78125 -3.944091,1.704 -7.874471,3.45058 -11.90625,4.94277 -1.178514,0.43618 -3.640912,1.01171 -3.339961,2.71973 0.381856,2.16719 6.806335,3.53335 8.631627,4.31806 8.426973,3.622877 16.734364,7.296087 23.812501,13.271027 8.78977,7.41979 13.37029,18.1368 17.76668,28.45883 1.0406,2.44315 1.90691,4.95722 2.92574,7.40732 0.40129,0.96497 1.07728,2.07382 2.31204,1.64507 1.66641,-0.57865 2.301059,-4.13184 2.874699,-5.61281 2.07665,-5.36123 4.27335,-10.81331 7.01084,-15.875 6.80485,-12.58228 16.268335,-20.19671 29.022515,-26.26132 3.96862,-1.887067 8.09203,-3.486757 12.17083,-5.118337 1.16926,-0.46772 3.64188,-1.02767 3.33996,-2.74117 -0.3711,-2.10616 -6.82505,-3.61268 -8.63163,-4.34869 -8.34518,-3.39988 -16.58781,-7.23617 -23.54791,-13.0591 -8.814865,-7.37463 -13.701705,-18.25013 -17.988815,-28.640126 -1.04492,-2.5324 -1.89734,-5.16811 -3.009229,-7.66883 -0.39659,-0.891932 -1.1666,-1.77434 -2.25672,-1.383553"
       id="path2" /></g></svg>
